<svg width="1440" height="19" viewBox="0 0 1440 19" fill="none" xmlns="http://www.w3.org/2000/svg">
<path d="M-11 1C4.33333 13.3333 58 33 112.5 1" stroke="black"/>
<path d="M112.5 1C127.833 13.3333 181.5 33 236 1" stroke="black"/>
<path d="M236 1C251.333 13.3333 305 33 359.5 1" stroke="black"/>
<path d="M359.5 1C374.833 13.3333 428.5 33 483 1" stroke="black"/>
<path d="M483 1C498.333 13.3333 552 33 606.5 1" stroke="black"/>
<path d="M606.5 1C621.833 13.3333 675.5 33 730 1" stroke="black"/>
<path d="M730 1C745.333 13.3333 799 33 853.5 1" stroke="black"/>
<path d="M853.5 1C868.833 13.3333 922.5 33 977 1" stroke="black"/>
<path d="M977 1C992.333 13.3333 1046 33 1100.5 1" stroke="black"/>
<path d="M1100.5 1C1115.83 13.3333 1169.5 33 1224 1" stroke="black"/>
<path d="M1224 1C1239.33 13.3333 1293 33 1347.5 1" stroke="black"/>
<path d="M1347.5 1C1362.83 13.3333 1416.5 33 1471 1" stroke="black"/>
</svg>
