<svg width="168" height="26" viewBox="0 0 168 26" fill="none" xmlns="http://www.w3.org/2000/svg">
<g clip-path="url(#clip0_146_134)">
<path d="M34.7672 19.2319H22.9655C23.0547 20.6883 23.5544 21.8274 24.4602 22.645C25.366 23.4625 26.4681 23.8735 27.762 23.8735C28.824 23.8735 29.7074 23.6278 30.4169 23.1319C31.1263 22.636 31.626 21.9749 31.9116 21.1484H34.5531C34.156 22.569 33.3662 23.7261 32.1838 24.6151C31.0014 25.5041 29.5245 25.9508 27.7665 25.9508C26.3654 25.9508 25.1117 25.6381 24.0096 25.0082C22.903 24.3783 22.0374 23.4848 21.4083 22.3233C20.7791 21.1618 20.4668 19.8171 20.4668 18.2893C20.4668 16.7615 20.7702 15.4213 21.3815 14.2687C21.9928 13.1161 22.8495 12.2316 23.956 11.6106C25.0626 10.9896 26.3298 10.6814 27.7665 10.6814C29.2032 10.6814 30.4079 10.9896 31.4833 11.5972C32.5586 12.2092 33.393 13.0491 33.9775 14.1213C34.562 15.1934 34.852 16.3996 34.852 17.7487C34.852 18.2178 34.8252 18.7092 34.7717 19.2319H34.7672ZM31.6974 14.8226C31.2825 14.1481 30.7247 13.6343 30.0153 13.2859C29.3058 12.9374 28.5206 12.7587 27.6594 12.7587C26.419 12.7587 25.366 13.1563 24.4914 13.947C23.6169 14.7378 23.1216 15.8367 22.9967 17.2395H32.3176C32.3176 16.3058 32.1124 15.4972 31.6974 14.8271V14.8226Z" fill="white"/>
<path d="M40.0189 5.74048V25.7051H37.5648V5.74048H40.0189Z" fill="white"/>
<path d="M45.6231 5.74048V25.7051H43.1691V5.74048H45.6231Z" fill="white"/>
<path d="M51.9679 25.0038C50.8435 24.3739 49.9645 23.4804 49.3264 22.3189C48.6884 21.1574 48.3716 19.8127 48.3716 18.2849C48.3716 16.7571 48.6973 15.4392 49.3532 14.2777C50.0091 13.1162 50.9015 12.2272 52.0348 11.6062C53.1681 10.9852 54.4309 10.677 55.8319 10.677C57.2329 10.677 58.5001 10.9852 59.6334 11.6062C60.7668 12.2272 61.6592 13.1117 62.3151 14.2643C62.971 15.4169 63.2967 16.7571 63.2967 18.2849C63.2967 19.8127 62.962 21.1574 62.2883 22.3189C61.6145 23.4804 60.7043 24.3739 59.5531 25.0038C58.402 25.6337 57.1303 25.9464 55.7293 25.9464C54.3282 25.9464 53.0923 25.6337 51.9723 25.0038H51.9679ZM58.2056 23.1677C58.9775 22.7523 59.6022 22.1358 60.0796 21.3048C60.5571 20.4784 60.7935 19.4688 60.7935 18.2849C60.7935 17.1011 60.5615 16.0914 60.093 15.265C59.6245 14.4385 59.0132 13.822 58.2592 13.4155C57.5051 13.009 56.6886 12.8079 55.8096 12.8079C54.9306 12.8079 54.0873 13.009 53.3422 13.4155C52.597 13.822 51.9991 14.4385 51.5485 15.265C51.0978 16.0914 50.8747 17.1011 50.8747 18.2849C50.8747 19.4688 51.0933 20.5052 51.5351 21.3316C51.9768 22.1581 52.5613 22.7746 53.302 23.1811C54.0427 23.5877 54.8458 23.7887 55.7293 23.7887C56.6127 23.7887 57.4337 23.5832 58.2101 23.1677H58.2056Z" fill="white"/>
<path d="M86.3335 11.3694C87.2304 11.8474 87.9398 12.5622 88.4619 13.5137C88.9839 14.4697 89.2427 15.6268 89.2427 16.9938V25.7096H86.8199V17.3467C86.8199 15.8725 86.454 14.7422 85.7267 13.9605C84.9994 13.1787 84.0133 12.7855 82.7774 12.7855C81.5414 12.7855 80.4884 13.1965 79.7344 14.0141C78.9803 14.8316 78.601 16.0154 78.601 17.5611V25.7096H76.1738V17.3467C76.1738 15.8725 75.8079 14.7422 75.0806 13.9605C74.3533 13.1787 73.3672 12.7855 72.1313 12.7855C70.8953 12.7855 69.8423 13.1965 69.0882 14.0141C68.3342 14.8316 67.9549 16.0154 67.9549 17.5611V25.7096H65.5009V10.9227H67.9549V13.0536C68.4413 12.2807 69.0927 11.6866 69.9092 11.2711C70.7258 10.8556 71.6271 10.6501 72.6176 10.6501C73.858 10.6501 74.9512 10.9271 75.906 11.4855C76.8564 12.044 77.5659 12.8615 78.0344 13.9426C78.4493 12.9017 79.132 12.0886 80.0824 11.5123C81.0328 10.9361 82.0947 10.6501 83.2637 10.6501C84.4328 10.6501 85.4367 10.8869 86.3335 11.3649V11.3694Z" fill="white"/>
<path d="M91.7191 14.2821C92.3304 13.1384 93.1693 12.2539 94.2401 11.624C95.311 10.9941 96.4979 10.6814 97.8097 10.6814C99.1215 10.6814 100.228 10.9584 101.178 11.5168C102.129 12.0752 102.838 12.7766 103.307 13.6209V10.9226H105.788V25.7051H103.307V22.9532C102.82 23.8154 102.098 24.5302 101.138 25.0975C100.179 25.6649 99.059 25.9463 97.7829 25.9463C96.5068 25.9463 95.2842 25.6247 94.2267 24.9769C93.1693 24.3292 92.3304 23.4223 91.7191 22.2518C91.1079 21.0814 90.8044 19.7501 90.8044 18.258C90.8044 16.7659 91.1079 15.4213 91.7191 14.2776V14.2821ZM102.633 15.3766C102.182 14.5501 101.576 13.9158 100.813 13.4735C100.05 13.0312 99.2107 12.8123 98.2915 12.8123C97.3724 12.8123 96.5425 13.0268 95.7839 13.4601C95.0254 13.8934 94.4275 14.5233 93.9769 15.3498C93.5262 16.1762 93.3031 17.1501 93.3031 18.2625C93.3031 19.3749 93.5262 20.38 93.9769 21.2154C94.4275 22.0508 95.0299 22.6896 95.7839 23.1319C96.538 23.5742 97.3724 23.7931 98.2915 23.7931C99.2107 23.7931 100.05 23.5742 100.813 23.1319C101.576 22.6896 102.182 22.0508 102.633 21.2154C103.084 20.38 103.307 19.4017 103.307 18.2893C103.307 17.1769 103.084 16.203 102.633 15.3766Z" fill="white"/>
<path d="M151.254 10.9226H148.8V25.7051H151.254V10.9226Z" fill="white"/>
<path d="M167.92 19.2319H156.118C156.207 20.6883 156.707 21.8274 157.613 22.645C158.518 23.4625 159.621 23.8735 160.914 23.8735C161.976 23.8735 162.86 23.6278 163.569 23.1319C164.279 22.636 164.779 21.9749 165.064 21.1484H167.706C167.308 22.569 166.519 23.7261 165.336 24.6151C164.154 25.5041 162.677 25.9508 160.919 25.9508C159.518 25.9508 158.264 25.6381 157.162 25.0082C156.055 24.3783 155.19 23.4848 154.561 22.3233C153.932 21.1618 153.619 19.8171 153.619 18.2893C153.619 16.7615 153.923 15.4213 154.534 14.2687C155.145 13.1161 156.002 12.2316 157.108 11.6106C158.215 10.9896 159.482 10.6814 160.919 10.6814C162.356 10.6814 163.56 10.9896 164.636 11.5972C165.711 12.2092 166.545 13.0491 167.13 14.1213C167.714 15.1934 168.004 16.3996 168.004 17.7487C168.004 18.2178 167.978 18.7092 167.924 19.2319H167.92ZM164.85 14.8226C164.435 14.1481 163.877 13.6343 163.168 13.2859C162.458 12.9374 161.673 12.7587 160.812 12.7587C159.571 12.7587 158.518 13.1563 157.644 13.947C156.769 14.7378 156.274 15.8367 156.149 17.2395H165.47C165.47 16.3058 165.265 15.4972 164.85 14.8271V14.8226Z" fill="white"/>
<path d="M6.95166 8.92105C7.42909 8.75575 7.88866 8.54132 8.31255 8.27328C9.5128 7.5049 10.2803 6.40146 10.5926 4.98978C11.1414 2.50146 10.4587 1.25954 9.78944 0.656443C9.08892 0.0176113 8.08053 -0.170018 7.09891 0.156099C5.87634 0.558161 4.91703 1.66606 4.64931 2.975C4.42622 4.07844 4.31913 5.40524 4.27451 6.62036C4.86795 6.58462 5.76926 6.464 6.47424 6.07534C6.48762 5.1372 6.50547 4.16778 6.7955 3.4128C6.98736 2.91246 7.38447 2.36744 7.78158 2.23789C7.84851 2.21555 7.95113 2.18875 8.04929 2.18875C8.14746 2.18875 8.24562 2.21108 8.32147 2.28256C8.56241 2.50146 8.74089 3.21624 8.45533 4.51624C8.36163 4.9451 8.12068 6.0128 6.65271 6.6829C5.62647 7.20112 4.37268 7.25919 3.84617 7.25919C3.78817 7.25919 3.73908 7.25919 3.69893 7.25919C1.98109 7.30386 0.486349 6.97775 0.472963 6.97775L0 9.11761C0.129396 9.14441 2.04356 9.56435 4.22097 9.43033C4.6047 9.39905 5.76926 9.27397 6.95612 8.92105H6.95166Z" fill="white"/>
<path d="M5.96985 13.866L6.80383 13.1169C8.08498 11.9662 9.95861 11.1629 12.5236 11.7273V11.7283C14.5382 12.1737 15.5583 13.9347 16.0685 15.7898C16.5613 17.5816 16.5282 19.3006 16.5226 19.5076C16.4845 20.1906 16.54 21.0778 16.714 21.865C16.801 22.2588 16.9218 22.6456 17.0861 22.9753C17.2465 23.2974 17.4731 23.6152 17.799 23.8025V23.8015C18.1771 24.0195 18.6293 24.0129 19.0597 23.9099C19.3812 23.8329 19.7289 23.6927 20.0948 23.5017C20.2963 23.7836 20.5476 24.1082 20.8439 24.446C19.4127 25.2392 18.2837 25.3429 17.4025 24.9304L17.2101 24.8298C16.2314 24.2651 15.7537 23.2697 15.5275 22.196C15.357 21.3871 15.34 20.5895 15.34 19.9753V19.4216L15.3351 19.0164C15.3232 18.4327 15.273 17.3663 15.0206 16.2976C14.7038 14.9564 14.0089 13.3688 12.4269 12.9304L12.2716 12.8914H12.2706C9.73268 12.3318 8.08292 13.3828 7.11829 14.488L6.93469 14.7087H6.93372C6.30407 15.5056 5.97473 16.4919 5.97473 17.4988V25.4998H4.78333V10.5027C5.09608 10.4648 5.50768 10.4059 5.96985 10.3162V13.866Z" fill="white" stroke="white"/>
<path d="M125.027 22.1224C124.786 22.1626 124.563 22.1536 124.358 22.0866C123.604 21.8454 122.979 20.9162 122.52 20.0361C121.618 18.6021 121.226 16.9 121.052 15.676C121.025 15.5241 120.998 15.3722 120.98 15.2203C119.776 5.84331 121.61 4.0519 122.453 3.71685C122.538 3.68558 122.667 3.65431 122.823 3.65431C123.051 3.65431 123.332 3.71685 123.577 3.93129C124.282 4.53438 124.425 6.03988 123.97 8.05912C123.292 11.0657 122.52 13.6969 121.69 15.8949C121.842 16.8196 122.118 17.9677 122.631 19.0265C123.805 16.5248 124.956 13.1162 125.991 8.51479C126.812 4.88283 125.862 3.15843 124.92 2.35431C123.832 1.42063 122.497 1.46531 121.685 1.78696C119.196 2.77424 118.178 6.22751 118.602 12.2986C117.415 11.5035 116.005 11.0567 114.533 11.0567C110.499 11.0567 107.22 14.3402 107.22 18.3787C107.22 19.4196 107.438 20.4069 107.831 21.3048C108.099 21.8141 108.532 22.5423 109.121 23.2883C110.459 24.767 112.391 25.7007 114.537 25.7007C115.068 25.7007 115.59 25.6382 116.095 25.5265C117.152 25.4237 118.375 24.91 119.651 23.61C119.678 23.5832 119.704 23.5564 119.731 23.5296C119.758 23.5028 119.78 23.476 119.807 23.4492C119.999 23.2481 120.186 23.0382 120.356 22.8148C120.494 22.645 120.632 22.4619 120.766 22.2742C120.387 21.6399 120.057 21.01 119.776 20.4203C119.686 20.6571 119.575 20.8983 119.441 21.0904C118.504 22.6942 116.394 23.6234 114.542 23.6234C111.651 23.6234 109.299 21.2691 109.299 18.3742C109.299 15.4794 111.651 13.1251 114.542 13.1251C116.318 13.1251 117.973 14.032 118.937 15.5107C119.097 16.7303 119.383 17.8962 119.798 18.9863C120.182 19.9244 120.726 21.0859 121.431 22.2162C122.011 23.0248 122.761 23.744 123.733 24.0567C124.563 24.3248 125.438 24.2577 126.344 23.8736C125.71 23.2124 125.295 22.5825 125.036 22.1134L125.027 22.1224Z" fill="white"/>
<path d="M147.538 23.7395C146.94 24.3202 146.288 24.7401 145.579 24.9858C143.763 25.6202 141.693 25.1109 139.738 23.5518C139.368 23.2525 139.029 22.8951 138.725 22.502C138.043 21.5102 137.623 20.6883 137.405 20.2013C137.405 20.2013 137.405 20.1968 137.409 20.1924C136.45 17.9542 136.115 15.6491 136.093 15.4972V15.448C136.075 15.3185 136.066 15.1889 136.053 15.0594C135.067 13.8532 133.581 13.1295 131.997 13.1295C129.105 13.1295 126.754 15.4838 126.754 18.3786C126.754 18.3786 126.754 18.3831 126.754 18.3876C126.754 19.2051 126.941 19.9735 127.267 20.6659C127.861 21.957 128.936 22.98 130.243 23.4133C130.832 23.6367 131.47 23.7618 132.14 23.7618C132.14 23.7618 134.777 23.8824 137.016 20.7731C137.257 21.2645 137.628 21.9346 138.159 22.7254C135.642 25.8838 131.997 25.7051 131.997 25.7051C130.109 25.7051 128.387 24.9814 127.089 23.802C126.361 23.1185 125.893 22.4439 125.607 21.9436C125.607 21.9436 125.607 21.9436 125.612 21.9436C125.023 20.8893 124.684 19.6742 124.684 18.3831C124.684 14.3446 127.963 11.0611 131.997 11.0611C133.393 11.0611 134.736 11.4676 135.883 12.1869C135.736 6.88413 136.744 4.22605 139.149 3.2745C139.961 2.95286 141.295 2.90818 142.384 3.84186C143.326 4.64598 144.272 6.37038 143.455 10.0023C142.995 12.0439 141.969 15.9752 140.256 19.3793C140.202 19.4865 140.149 19.5938 140.091 19.6965C139.582 18.7182 139.274 17.6102 139.114 16.891C140.095 14.5948 140.885 11.9814 141.434 9.54667C141.889 7.52743 141.746 6.02193 141.041 5.41883C140.626 5.06145 140.122 5.12399 139.917 5.2044C138.766 5.66007 137.538 7.12983 138.074 14.3089L138.123 14.9343C138.132 15.037 138.141 15.1353 138.15 15.2425C138.221 15.7474 138.386 16.5694 138.65 17.4852C138.868 18.3295 139.234 19.4553 139.81 20.4023C140.158 21.0233 140.564 21.5683 141.032 21.9391C141.826 22.5735 143.388 23.5652 144.892 23.0381C145.418 22.8549 147.078 21.8408 147.533 21.3226V23.7484L147.538 23.7395Z" fill="white"/>
<path d="M150.023 7.96092C151.373 7.96092 152.468 6.86486 152.468 5.51281C152.468 4.16075 151.373 3.0647 150.023 3.0647C148.673 3.0647 147.578 4.16075 147.578 5.51281C147.578 6.86486 148.673 7.96092 150.023 7.96092Z" fill="white"/>
</g>
<defs>
<clipPath id="clip0_146_134">
<rect width="168" height="26" fill="white"/>
</clipPath>
</defs>
</svg>
